<?xml version="1.0" encoding="utf-8"?>
<!-- Generator: Adobe Illustrator 16.0.0, SVG Export Plug-In . SVG Version: 6.00 Build 0)  -->
<!DOCTYPE svg PUBLIC "-//W3C//DTD SVG 1.1//EN" "http://www.w3.org/Graphics/SVG/1.1/DTD/svg11.dtd">
<svg version="1.1" id="Layer_1" xmlns="http://www.w3.org/2000/svg" xmlns:xlink="http://www.w3.org/1999/xlink" x="0px" y="0px"
	 width="422.979px" height="422.98px" viewBox="0 0 422.979 422.98" enable-background="new 0 0 422.979 422.98"
	 xml:space="preserve">
<circle fill="#4B6387" cx="211.49" cy="211.49" r="209.24"/>
<g>
	<path fill="#FFFDF3" d="M527.865,32.68c-0.83-0.015-8.303,0.15-8.499,0.492c-1.062,1.846,6.075,8.207,10.083,11.649l37.748,31.047
		l61.711,50.755l39.087,31.744c3,2.394,10.822,9.351,17.26,6.95c0,0,28.287-16.02,43.81-53.418
		c8.102-19.52,10.168-43.477,9.118-65.024c-0.3-6.146-1.479-13.443-8.23-13.565C729.948,33.312,527.865,32.68,527.865,32.68z"/>
</g>
<path opacity="0.7" fill="#FFFDF3" enable-background="new    " d="M528.74,33.625c2.313,0.201,13.354,0.562,19.886,0.763
	c8.032,0.249,16.064,0.442,24.099,0.697c8.888,0.282,17.776,0.484,26.665,0.769c9.096,0.291,18.195,0.498,27.291,0.784
	c8.657,0.272,17.313,0.489,25.971,0.744c7.573,0.225,15.144,0.465,22.717,0.649c5.854,0.142,11.688,0.447,17.546,0.492
	c5.356,0.042,10.7-0.126,16.051-0.423c2.891-0.159,6.771,0.487,7.719-3.11c0.669-2.546,0.343-5.527,0.271-8.133
	c-0.376-13.725-2.721-27.413-6.785-40.566c-3.111-10.067-7.232-19.822-12.253-29.042c-3.142-5.77-6.835-11.362-11.022-16.431
	c-3.37-4.079-7.211-7.805-11.437-10.998c-6.813-5.15-13.218,0.543-19.015,4.242c-5.305,3.385-9.003,6.131-15.381,10.393
	c-20.842,13.926-41.313,29.109-61.653,43.755c-17.313,12.467-34.702,24.907-51.51,38.054c-2.432,1.903-6.301,4.518-8.425,6.775
	C519.471,33.039,525.777,33.367,528.74,33.625z"/>
<path opacity="0.7" fill="#FFFDF3" enable-background="new    " d="M290.929,197.972c0.23-2.108,0.025-4.374-0.031-6.412
	c-0.375-13.726-2.721-27.413-6.785-40.566c-3.11-10.067-7.231-19.822-12.252-29.042c-3.143-5.77-6.836-11.362-11.022-16.431
	c-3.371-4.079-7.211-7.805-11.437-10.998c-6.813-5.15-13.219,0.543-19.016,4.242c-5.305,3.385-9.002,6.131-15.381,10.393
	c-20.841,13.926-41.312,29.109-61.653,43.755c-17.313,12.467-45.384,33.308-51.51,38.055c-3.423,2.652-5.223,5.924-4.644,9.528
	L290.929,197.972z"/>
<path fill="#FFFDF3" enable-background="new    " d="M97.198,200.496c0.457,2.848,2.397,5.903,6.195,9.027
	c8.606,7.079,37.748,31.047,37.748,31.047l61.711,50.755l39.087,31.743c3,2.395,10.822,9.352,17.258,6.951
	c0,0,28.289-16.021,43.812-53.418c8.102-19.521,10.168-43.478,9.117-65.024c-0.3-6.146-1.479-13.442-8.23-13.565
	c0,0-4.822-0.015-12.967-0.04L97.198,200.496z"/>
</svg>
