<?xml version="1.0" encoding="UTF-8" standalone="no"?>
<!DOCTYPE svg PUBLIC "-//W3C//DTD SVG 1.1//EN" "http://www.w3.org/Graphics/SVG/1.1/DTD/svg11.dtd">
<!-- Created with Vectornator (http://vectornator.io/) -->
<svg height="100%" stroke-miterlimit="10" style="fill-rule:nonzero;clip-rule:evenodd;stroke-linecap:round;stroke-linejoin:round;" version="1.1" viewBox="0 0 2244.84 426.4" width="100%" xml:space="preserve" xmlns="http://www.w3.org/2000/svg" xmlns:vectornator="http://vectornator.io" xmlns:xlink="http://www.w3.org/1999/xlink">
<defs/>
<clipPath id="ArtboardFrame">
<rect height="426.4" width="2244.84" x="0" y="0"/>
</clipPath>
<g clip-path="url(#ArtboardFrame)" id="Untitled" vectornator:layerName="Untitled">
<path d="M720.169 281.728C714.996 271.868 702.435 268.808 693.568 271.528C682.114 274.588 672.139 285.468 664.011 289.208C638.888 302.128 607.114 295.668 590.858 274.248C570.168 247.048 574.971 200.808 590.488 170.208C605.267 140.968 648.124 132.468 672.139 158.648C679.159 166.808 686.917 175.988 700.587 172.588C733.469 165.108 709.085 127.708 693.568 115.128C669.183 94.3878 619.306 90.3078 589.011 106.288C549.109 126.688 528.05 169.188 525.464 202.508C522.138 239.568 524.355 290.568 558.715 316.748C587.533 338.848 628.543 346.328 661.055 339.868C690.243 333.408 733.469 307.568 720.169 281.728Z" fill="#3e5a84" fill-rule="nonzero" opacity="1" stroke="none"/>
<path d="M957.006 315.446C957.346 308.579 956.666 301.385 956.666 295.172C956.666 265.742 956.326 233.041 956.326 203.611C956.326 179.413 955.646 155.215 955.646 131.016C955.646 128.4 955.306 125.784 954.966 122.841C954.626 120.552 953.946 117.936 953.266 115.647C952.246 113.358 950.886 111.723 949.186 110.088C946.806 108.126 944.426 106.818 941.366 106.491C938.646 106.164 935.926 105.837 932.526 105.837C917.906 106.164 903.626 128.727 897.166 138.865C882.206 162.736 874.386 174.181 864.866 188.242C863.166 191.512 857.386 199.687 855.006 202.303C846.846 191.512 838.006 175.816 826.106 157.504C820.666 149.002 810.806 132.978 803.666 125.13C797.886 119.244 791.766 108.126 782.586 106.491C779.866 106.164 776.806 105.837 773.746 105.837C770.006 105.837 766.266 106.818 762.866 108.78C759.466 110.742 757.426 113.358 755.726 116.628C754.026 120.552 752.666 124.803 752.666 129.381C751.306 147.694 750.626 166.333 750.626 185.299L750.626 229.117L750.286 279.476L749.946 304.982C749.946 310.868 750.286 316.754 750.626 322.64C751.306 328.199 754.366 335.721 760.146 339.318C778.846 348.801 794.146 336.048 794.146 321.332C795.506 321.005 795.846 183.664 796.186 182.029C810.806 208.189 824.746 225.847 835.626 238.928C839.706 243.833 847.186 252.008 854.666 251.354C867.586 250.373 875.406 241.544 910.766 184.972C911.446 199.36 911.106 200.341 911.106 201.649C911.446 217.018 911.446 215.71 911.446 229.771L911.786 279.803L911.786 305.309C912.126 316.754 910.426 332.124 923.006 339.645C928.106 341.934 933.886 342.915 940.346 340.953C944.086 340.626 946.806 339.318 949.186 337.356C950.886 336.048 952.586 333.759 953.606 331.47C955.646 326.564 956.666 320.678 957.006 315.446Z" fill="#3e5a84" fill-rule="nonzero" opacity="1" stroke="none"/>
<path d="M1027.05 180.068C1016.51 180.408 1006.31 179.048 996.786 183.128C989.306 185.848 984.546 194.688 984.546 202.168C984.546 208.628 987.266 213.048 992.366 217.808C1000.19 225.288 1012.77 224.608 1023.31 223.928L1089.95 223.588C1090.63 223.588 1108.31 224.608 1115.79 216.108C1118.51 213.048 1120.21 205.908 1120.21 200.468C1120.21 195.708 1118.51 190.608 1115.45 187.548C1108.65 181.428 1100.49 178.368 1092.67 180.068L1027.05 180.068Z" fill="#3e5a84" fill-rule="nonzero" opacity="1" stroke="none"/>
<path d="M1321.83 243.678C1316.05 226.011 1301.09 213.251 1281.37 205.726C1261.99 198.528 1240.91 198.855 1220.85 196.238C1207.59 194.602 1191.95 190.022 1190.93 175.953C1189.23 156.323 1205.21 146.18 1224.93 143.89C1240.57 142.254 1260.97 144.871 1273.21 153.705C1282.73 160.249 1294.63 174.317 1308.91 165.484C1326.25 155.341 1310.61 133.093 1299.05 124.259C1283.07 111.172 1253.15 104.956 1225.95 105.938C1201.47 106.919 1181.07 111.827 1166.45 124.259C1136.53 151.742 1138.57 208.343 1180.05 225.029C1200.79 233.863 1224.59 232.227 1246.01 236.481C1265.39 241.061 1278.31 246.95 1278.31 267.562C1278.31 292.755 1243.97 307.805 1214.05 297.989C1203.51 293.082 1193.31 285.23 1188.55 276.069C1183.11 264.945 1169.17 263.309 1159.65 265.272C1145.37 268.544 1143.33 285.557 1148.43 295.372C1155.57 309.441 1165.77 320.892 1180.39 328.744C1226.63 353.282 1307.55 336.269 1322.17 287.193C1326.25 275.414 1326.25 256.111 1321.83 243.678Z" fill="#3e5a84" fill-rule="nonzero" opacity="1" stroke="none"/>
<path d="M1537.39 314.311C1537.73 308.147 1537.05 302.632 1537.05 296.468C1536.71 242.616 1536.37 184.871 1536.37 131.019C1536.37 128.099 1536.03 125.829 1535.35 122.909C1535.01 120.314 1534.33 118.043 1533.31 115.447C1532.63 113.501 1530.93 111.554 1529.57 110.257C1519.71 102.147 1499.99 105.715 1495.57 116.745C1493.53 120.962 1492.17 125.18 1492.17 129.397C1491.15 147.564 1491.15 169.624 1491.15 187.791C1491.49 203.363 1491.83 217.961 1491.83 231.586L1491.83 252.997L1413.29 134.912L1409.55 129.721C1407.85 127.451 1406.49 125.504 1405.13 122.909C1403.43 120.962 1401.73 118.367 1399.35 116.096C1397.65 114.15 1395.27 112.203 1393.23 110.581C1390.85 109.284 1388.81 107.986 1386.43 107.337C1380.65 106.04 1371.47 107.013 1366.37 109.932C1362.97 111.879 1360.25 114.474 1359.23 117.718C1356.85 121.611 1355.83 125.829 1355.49 130.37C1354.47 148.213 1353.79 170.597 1354.13 189.088C1354.13 204.336 1354.13 218.934 1353.79 232.559L1353.45 279.599L1352.77 304.903L1352.77 310.418C1351.41 325.665 1358.21 344.805 1380.65 340.912C1384.39 340.264 1387.45 338.966 1389.49 337.344C1395.27 332.478 1397.65 325.341 1397.65 318.528L1397.65 315.608L1398.67 191.684C1407.85 204.336 1416.35 219.907 1424.17 231.586L1452.73 272.786C1465.99 291.926 1478.23 312.04 1493.53 329.882C1500.67 338.966 1518.35 344.481 1529.23 336.046C1536.37 330.856 1537.05 321.448 1537.39 314.311Z" fill="#3e5a84" fill-rule="nonzero" opacity="1" stroke="none"/>
<path d="M1595.67 320.757C1595.67 309.241 1586.15 299.699 1574.25 299.699C1562.35 299.699 1552.83 309.241 1552.83 320.757C1552.83 332.273 1562.35 341.486 1574.25 341.486C1586.15 341.486 1595.67 332.273 1595.67 320.757Z" fill="#586072" fill-rule="nonzero" opacity="1" stroke="none"/>
<path d="M1829.56 316.544C1829.22 314.57 1828.54 312.266 1827.86 310.621C1827.18 308.647 1826.84 307.989 1826.84 307.66L1756.12 139.198L1754.08 133.934C1753.06 131.301 1751.7 129.327 1750.68 126.366C1749.66 123.734 1748.64 121.431 1746.94 118.798C1745.24 116.166 1743.54 113.863 1741.84 111.889C1740.14 109.915 1738.1 108.598 1736.06 107.611C1729.6 105.308 1720.42 105.308 1713.96 107.611C1711.92 108.598 1709.88 109.915 1708.18 111.889C1706.48 113.863 1704.44 116.166 1703.08 118.798C1701.38 121.431 1700.36 123.734 1699.34 126.366C1698.32 129.327 1696.96 131.301 1695.94 133.934L1693.9 139.198L1623.18 307.66C1623.18 307.989 1622.84 308.647 1622.16 310.621C1621.48 312.266 1620.8 314.57 1620.46 316.544C1620.12 319.176 1619.78 321.479 1619.78 324.44C1619.78 327.073 1620.46 329.376 1622.16 331.679C1623.52 333.653 1625.9 335.956 1628.96 337.273C1634.74 340.563 1640.52 341.55 1646.98 340.563C1649.7 339.905 1652.76 338.589 1655.48 336.285C1656.16 335.627 1656.84 335.298 1657.18 334.64C1657.52 334.311 1658.2 333.324 1658.88 332.995C1660.92 331.021 1662.28 328.718 1663.3 326.744C1664.66 324.769 1665.68 322.795 1667.04 320.492C1668.06 318.847 1668.74 317.202 1669.42 315.557C1670.1 313.912 1670.44 311.937 1671.12 310.292L1678.26 294.17C1709.2 294.499 1740.82 294.17 1771.76 294.17L1778.9 310.292C1779.24 311.937 1779.92 313.912 1780.6 315.557C1780.94 317.202 1781.96 318.847 1782.98 320.492C1784.34 322.795 1785.36 324.769 1786.38 326.744C1787.74 328.718 1789.1 331.021 1791.14 332.995C1791.82 333.324 1792.5 334.311 1792.84 334.64C1793.18 335.298 1793.86 335.627 1794.54 336.285C1797.26 338.589 1800.32 339.905 1803.04 340.563C1809.5 341.55 1815.28 340.563 1821.06 337.273C1824.12 335.956 1826.5 333.653 1827.86 331.679C1829.56 329.376 1830.24 327.073 1830.24 324.44C1830.24 321.479 1829.9 319.176 1829.56 316.544ZM1755.1 250.409L1694.92 250.409L1701.04 235.932C1706.82 223.429 1712.94 209.61 1719.74 195.462C1721.44 191.513 1723.48 187.236 1724.84 183.288C1726.54 187.236 1728.58 191.513 1730.28 195.462C1737.08 209.61 1743.2 223.429 1748.98 235.932L1755.1 250.409Z" fill="#586072" fill-rule="nonzero" opacity="1" stroke="none"/>
<path d="M2032.88 324.44C2032.54 322.466 2031.86 319.505 2031.18 316.873C2029.82 314.57 2028.8 311.937 2027.44 309.634C2026.42 307.66 2025.06 305.028 2024.04 303.383L2020.98 298.118L1989.7 237.248C1990.72 236.919 1992.42 236.59 1993.44 235.932C2018.6 226.39 2029.82 204.674 2029.82 181.314C2029.82 161.243 2021.32 139.856 2005.68 126.037C2002.96 123.405 1999.9 121.431 1995.48 119.127C1992.08 117.482 1988 115.837 1984.26 114.521C1971.68 109.586 1956.04 107.94 1942.78 107.282C1923.06 106.295 1902.66 106.624 1882.6 106.295C1871.72 105.966 1866.62 108.269 1863.9 110.902C1862.2 112.218 1861.18 114.192 1860.5 116.495C1859.48 118.469 1858.46 121.101 1858.12 123.734C1857.78 126.037 1857.44 128.998 1857.44 131.63L1857.44 318.518C1857.44 320.821 1857.78 322.466 1858.46 324.769C1859.14 326.744 1859.82 329.376 1860.84 331.679C1861.86 333.653 1863.22 335.956 1864.92 337.273C1867.64 338.918 1870.02 339.905 1873.42 340.563C1879.88 341.879 1886 341.221 1890.76 338.26C1896.2 334.969 1899.6 329.376 1900.28 324.44C1900.62 321.479 1900.96 317.202 1900.96 315.228C1900.96 311.608 1901.3 308.647 1901.3 305.357L1901.3 245.803L1907.76 245.803C1916.6 245.474 1924.76 246.132 1934.28 245.474C1937.68 245.145 1941.42 244.816 1945.16 244.816L1982.9 314.241C1985.28 319.176 1988.34 323.453 1990.38 327.073C1993.1 331.021 1995.82 333.982 1999.9 337.273C2002.62 339.576 2005.68 340.892 2009.42 341.221C2013.16 341.879 2016.56 341.221 2019.96 340.234C2022.68 339.247 2025.4 337.931 2027.44 336.614C2029.48 334.969 2031.18 333.324 2032.2 330.692C2032.88 329.047 2033.22 326.744 2032.88 324.44ZM1901.3 207.307C1901.3 181.972 1901.98 164.862 1901.3 146.766C1915.24 146.766 1931.9 146.766 1945.16 147.424C1967.26 148.411 1982.56 158.94 1980.86 180.655C1979.84 195.462 1963.86 207.307 1947.88 207.307L1901.3 207.307Z" fill="#586072" fill-rule="nonzero" opacity="1" stroke="none"/>
<path d="M2226 116.166C2223.62 113.205 2219.88 111.231 2215.8 109.915C2210.36 107.611 2204.92 106.953 2199.14 106.624C2173.3 105.966 2147.12 105.637 2120.94 105.966C2105.3 106.295 2091.7 106.295 2075.72 106.295C2071.64 106.295 2068.24 106.295 2064.5 106.624C2060.76 106.953 2057.02 107.611 2054.3 108.598C2050.56 109.586 2046.14 111.889 2044.44 113.205C2041.38 115.179 2039.68 117.482 2039 119.785C2038.32 122.089 2038.32 124.721 2038.32 127.353C2038.32 130.972 2039.68 134.263 2042.06 136.895C2044.78 139.856 2048.18 141.83 2053.28 143.146C2056.68 144.133 2063.82 145.121 2066.54 145.45C2072.66 146.437 2105.98 146.766 2111.42 146.766L2111.42 315.886C2111.42 317.531 2111.76 320.163 2112.44 322.137C2112.78 324.44 2113.46 326.415 2114.82 329.047C2115.84 331.35 2117.2 332.995 2119.24 334.969C2121.28 336.614 2124.34 337.602 2128.08 337.931C2134.2 339.247 2139.98 338.589 2144.74 336.285C2147.46 334.64 2149.84 332.666 2151.2 330.034L2152.22 328.06C2152.22 327.731 2152.56 327.073 2153.58 326.086C2154.26 323.782 2154.94 321.808 2154.94 319.834C2155.28 317.202 2155.62 314.899 2155.96 312.924C2156.3 310.95 2156.3 309.305 2156.3 307.66C2155.96 306.015 2155.96 304.699 2155.96 302.725L2155.96 277.719C2155.96 205.333 2156.98 172.43 2156.3 145.45C2164.12 145.45 2171.94 145.45 2180.1 145.121L2197.44 145.121C2200.84 145.121 2204.24 145.121 2207.3 144.791C2211.04 144.133 2214.1 143.804 2217.16 142.817C2219.88 142.159 2222.6 141.172 2224.64 139.856C2227.02 137.553 2228.38 135.25 2229.06 132.946C2229.4 130.643 2229.74 127.682 2229.74 125.05C2229.74 121.76 2228.38 118.798 2226 116.166Z" fill="#586072" fill-rule="nonzero" opacity="1" stroke="none"/>
<path d="M0 213.833C0 95.7364 95.7364 0 213.833 0C331.93 0 427.666 95.7364 427.666 213.833C427.666 331.93 331.93 427.666 213.833 427.666C95.7364 427.666 0 331.93 0 213.833Z" fill="#3e5a84" fill-rule="nonzero" opacity="1" stroke="none"/>
<path d="M292.416 203.276C292.646 201.181 292.441 198.929 292.385 196.903C292.009 183.259 289.661 169.653 285.592 156.579C282.479 146.572 278.353 136.875 273.326 127.71C270.179 121.975 266.482 116.416 262.291 111.377C258.916 107.323 255.072 103.619 250.841 100.445C244.02 95.3259 237.42 100.705 231.803 104.662C191.742 132.88 132.547 175.915 103.111 196.314C99.5573 198.777 97.8341 200.277 97.1155 202.829L292.416 203.276Z" fill="#fffdf3" fill-rule="nonzero" opacity="0.7" stroke="none"/>
<path d="M97.1194 202.491C97.2816 205.43 99.4819 208.63 103.363 211.823C112.158 219.057 141.94 243.552 141.94 243.552L205.006 295.421L244.951 327.861C248.016 330.308 256.01 337.418 262.587 334.964C262.587 334.964 289.189 316.898 303.757 281.205C311.919 261.207 317.752 235.941 316.678 213.922C316.372 207.641 315.167 200.185 308.268 200.059C308.268 200.059 303.34 200.044 295.016 200.018L97.1194 202.491Z" fill="#fcfbf9" fill-rule="nonzero" opacity="1" stroke="none"/>
</g>
</svg>
