<?xml version="1.0" encoding="UTF-8" standalone="no"?>
<!DOCTYPE svg PUBLIC "-//W3C//DTD SVG 1.1//EN" "http://www.w3.org/Graphics/SVG/1.1/DTD/svg11.dtd">
<!-- Created with Vectornator (http://vectornator.io/) -->
<svg height="100%" stroke-miterlimit="10" style="fill-rule:nonzero;clip-rule:evenodd;stroke-linecap:round;stroke-linejoin:round;" version="1.1" viewBox="0 0 422.979 422.98" width="100%" xml:space="preserve" xmlns="http://www.w3.org/2000/svg" xmlns:vectornator="http://vectornator.io" xmlns:xlink="http://www.w3.org/1999/xlink">
<defs/>
<g id="Untitled" vectornator:layerName="Untitled">
<path d="M3.0954 211.615C3.0954 96.7284 96.2289 3.59486 211.115 3.59486C326.001 3.59486 419.135 96.7284 419.135 211.615C419.135 326.501 326.001 419.634 211.115 419.634C96.2289 419.634 3.0954 326.501 3.0954 211.615Z" fill="#3e5a84" fill-rule="nonzero" opacity="1" stroke="none"/>
<path d="M287.562 201.344C287.785 199.306 287.585 197.115 287.531 195.144C287.166 181.871 284.881 168.636 280.923 155.916C277.894 146.182 273.881 136.748 268.99 127.833C265.93 122.253 262.332 116.846 258.256 111.945C254.972 108 251.233 104.397 247.117 101.309C240.481 96.329 234.06 101.562 228.597 105.411C189.624 132.862 132.039 174.727 103.403 194.572C99.946 196.967 98.2696 198.427 97.5705 200.91L287.562 201.344Z" fill="#fffdf3" fill-rule="nonzero" opacity="0.7" stroke="none"/>
<path d="M97.5744 200.581C97.7321 203.439 99.8726 206.553 103.648 209.659C112.204 216.697 141.176 240.524 141.176 240.524L202.527 290.983L241.386 322.542C244.369 324.923 252.145 331.84 258.543 329.452C258.543 329.452 284.422 311.877 298.594 277.154C306.534 257.7 312.209 233.121 311.164 211.7C310.866 205.59 309.693 198.337 302.982 198.215C302.982 198.215 298.188 198.2 290.091 198.175L97.5744 200.581Z" fill="#fcfbf9" fill-rule="nonzero" opacity="1" stroke="none"/>
</g>
</svg>
