<?xml version="1.0" encoding="UTF-8" standalone="no"?>
<!DOCTYPE svg PUBLIC "-//W3C//DTD SVG 1.1//EN" "http://www.w3.org/Graphics/SVG/1.1/DTD/svg11.dtd">
<!-- Created with Vectornator (http://vectornator.io/) -->
<svg height="100%" stroke-miterlimit="10" style="fill-rule:nonzero;clip-rule:evenodd;stroke-linecap:round;stroke-linejoin:round;" version="1.1" viewBox="0 0 422.979 422.98" width="100%" xml:space="preserve" xmlns="http://www.w3.org/2000/svg" xmlns:xlink="http://www.w3.org/1999/xlink">
<defs/>
<g id="Untitled">
<path d="M0.56 211.712C0.56 95.3389 94.8989 1 211.272 1C327.645 1 421.984 95.3389 421.984 211.712C421.984 328.085 327.645 422.424 211.272 422.424C94.8989 422.424 0.56 328.085 0.56 211.712Z" fill="#3e5a84" fill-rule="nonzero" opacity="1" stroke="none"/>
<path d="M288.708 201.309C288.934 199.244 288.732 197.025 288.677 195.028C288.307 181.584 285.993 168.177 281.983 155.293C278.915 145.433 274.85 135.877 269.896 126.846C266.796 121.194 263.152 115.717 259.023 110.752C255.697 106.756 251.909 103.107 247.74 99.9789C241.018 94.9344 234.514 100.235 228.98 104.134C189.503 131.94 131.172 174.347 102.166 194.449C98.6641 196.875 96.966 198.354 96.2579 200.869L288.708 201.309Z" fill="#fffdf3" fill-rule="nonzero" opacity="0.7" stroke="none"/>
<path d="M96.2618 200.536C96.4215 203.431 98.5898 206.585 102.414 209.731C111.081 216.86 140.428 240.996 140.428 240.996L202.573 292.108L241.935 324.075C244.956 326.487 252.833 333.493 259.314 331.075C259.314 331.075 285.528 313.272 299.883 278.1C307.926 258.394 313.674 233.497 312.616 211.799C312.314 205.61 311.126 198.263 304.328 198.139C304.328 198.139 299.472 198.124 291.27 198.099L96.2618 200.536Z" fill="#fcfbf9" fill-rule="nonzero" opacity="1" stroke="none"/>
</g>
</svg>
