<?xml version="1.0" encoding="utf-8"?>
<!-- Generator: Adobe Illustrator 16.0.0, SVG Export Plug-In . SVG Version: 6.00 Build 0)  -->
<!DOCTYPE svg PUBLIC "-//W3C//DTD SVG 1.1//EN" "http://www.w3.org/Graphics/SVG/1.1/DTD/svg11.dtd">
<svg version="1.1" id="Logo__x2014__FIXED" xmlns="http://www.w3.org/2000/svg" xmlns:xlink="http://www.w3.org/1999/xlink" x="0px"
	 y="0px" width="85.5px" height="69.5px" viewBox="0 0 85.5 69.5" enable-background="new 0 0 85.5 69.5" xml:space="preserve">
<g>
	<rect x="-21.5" y="-30" fill="none" width="130.395" height="130.395"/>
	<path fill="#1E1E1E" d="M28.579,68.314c30.755,0,47.573-25.479,47.573-47.573c0-0.724-0.015-1.445-0.047-2.162
		c3.264-2.36,6.102-5.305,8.341-8.657c-2.996,1.331-6.22,2.228-9.602,2.632c3.452-2.07,6.102-5.345,7.352-9.25
		c-3.231,1.916-6.809,3.309-10.617,4.059c-3.051-3.25-7.396-5.283-12.205-5.283c-9.234,0-16.723,7.488-16.723,16.719
		c0,1.313,0.147,2.588,0.434,3.813C29.189,21.914,16.867,15.26,8.621,5.143c-1.437,2.47-2.264,5.341-2.264,8.404
		c0,5.801,2.952,10.922,7.44,13.917c-2.743-0.084-5.319-0.838-7.573-2.092c-0.004,0.07-0.004,0.14-0.004,0.213
		c0,8.099,5.764,14.859,13.415,16.392c-1.405,0.382-2.882,0.588-4.408,0.588c-1.077,0-2.125-0.107-3.143-0.302
		c2.128,6.643,8.3,11.477,15.62,11.613c-5.724,4.485-12.933,7.157-20.767,7.157c-1.349,0-2.68-0.077-3.988-0.232
		C10.349,65.546,19.135,68.314,28.579,68.314"/>
</g>
</svg>
