<?xml version="1.0" encoding="utf-8"?>
<!-- Generator: Adobe Illustrator 16.0.0, SVG Export Plug-In . SVG Version: 6.00 Build 0)  -->
<!DOCTYPE svg PUBLIC "-//W3C//DTD SVG 1.1//EN" "http://www.w3.org/Graphics/SVG/1.1/DTD/svg11.dtd">
<svg version="1.1" id="Layer_1" xmlns="http://www.w3.org/2000/svg" xmlns:xlink="http://www.w3.org/1999/xlink" x="0px" y="0px"
	 width="422.979px" height="422.98px" viewBox="0 0 422.979 422.98" enable-background="new 0 0 422.979 422.98"
	 xml:space="preserve">
<circle fill="#4B6387" cx="211.49" cy="211.49" r="209.24"/>
<g>
	<g>
		<path opacity="0.9" fill="#2D2E30" enable-background="new    " d="M306.002,324.699c0.106-0.055,0.224-0.104,0.333-0.154
			c-0.094-0.106-0.171-0.223-0.262-0.33C306.053,324.375,306.024,324.537,306.002,324.699z"/>
		<path opacity="0.9" fill="#2D2E30" enable-background="new    " d="M308.723,271.869c-21.947-8.623-57.226-13.109-92.145-11.477
			c-60.462,2.826-119.781,35.77-114.777,44.484c5.004,8.713,45.832,30.078,105.688,34.668c35.595,2.728,72.305-1.901,93.045-12.063
			c0.021-0.162,0.051-0.321,0.073-0.483C289.58,313.792,297.222,290.171,308.723,271.869z"/>
	</g>
	<g opacity="0.7">
		<path fill="#FFFDF3" d="M94.616,206.396c-5.493,0.295-6.324-2.078-1.849-5.275L264.323,95.882c0,0,6.667,7.015,9.667,19.108
			s18.362,74.024,18.362,74.024c2.094,5.086-7.161,11.599-12.652,11.894L94.616,206.396z"/>
	</g>
	<g>
		<path fill="#FFFDF3" d="M94.463,203.021c-5.493,0.293-6.089,2.784-1.328,5.536l203.086,117.332
			c4.762,2.753,6.769,4.434,10.394-4.844c0,0,8.375-19.556,14.875-57.556s6.4-63.174,6.4-63.174c0.954-5.417-2.759-9.608-8.25-9.315
			L94.463,203.021z"/>
	</g>
</g>
</svg>
